<svg id="Layer_1" height="512" viewBox="0 0 512 512" width="512" xmlns="http://www.w3.org/2000/svg" data-name="Layer 1"><path d="m303.007 314.373c16.32 16.5 33.2 30.418 47.541 39.177 16.118 9.848 22.3 9.01 23.069 8.245s1.681-6.933-7.985-23.16c-8.6-14.434-22.321-31.473-38.642-47.977s-33.2-30.418-47.541-39.178c-11.708-7.154-18.173-8.668-21.129-8.668a3.075 3.075 0 0 0 -1.94.423c-.773.764-1.681 6.933 7.986 23.161 8.598 14.434 22.321 31.473 38.641 47.977z"/><path d="m334.1 283.626c16.873 17.063 31.122 34.782 40.122 49.891q6.563 11.016 8.723 19.053l83.3-82.375a83.368 83.368 0 0 0 -117.236-118.56l-83.3 82.375q8.013 2.267 18.954 8.937c15.007 9.169 32.565 23.616 49.437 40.679zm33.519-122.626 3.737-3.8a5 5 0 0 1 7.126 7.016l-3.737 3.8a5 5 0 1 1 -7.126-7.016zm-48.073 48.068 34.332-34.319a5 5 0 0 1 7.07 7.072l-34.333 34.32a5 5 0 1 1 -7.069-7.073z"/><path d="m127.463 252.272q2.268-8.013 8.936-18.955c9.17-15.007 23.617-32.564 40.68-49.437 17.237-17.045 48.229-43.243 68.933-48.857l-82.364-83.293a83.368 83.368 0 1 0 -118.56 117.237zm-66.371-99.572a5 5 0 0 1 7.071 0l34.319 34.332a5 5 0 1 1 -7.072 7.07l-34.32-34.327a5 5 0 0 1 .002-7.075zm-17.6-17.478a5 5 0 0 1 7.071-.055l3.8 3.737a5 5 0 1 1 -7.015 7.126l-3.8-3.737a5 5 0 0 1 -.057-7.067z"/><path d="m184.11 190.99c-16.5 16.321-30.418 33.2-39.177 47.541-9.848 16.118-9.009 22.3-8.245 23.069s6.932 1.683 23.161-7.985c14.434-8.6 31.472-22.321 47.977-38.641s30.418-33.2 39.177-47.542c9.848-16.117 9.009-22.3 8.245-23.069a3.2 3.2 0 0 0 -2.035-.446c-3 0-9.466 1.486-21.126 8.432-14.434 8.598-31.472 22.321-47.977 38.641z"/><circle cx="167.5" cy="323.48" r="8.5"/><circle cx="221" cy="374.98" r="13"/><circle cx="158.5" cy="444.48" r="6.5"/><circle cx="254" cy="472.98" r="12"/><circle cx="284.5" cy="413.48" r="11.5"/><circle cx="220.5" cy="288.48" r="8.5"/></svg>