<svg id="Capa_1" enable-background="new 0 0 511.445 511.445" height="512" viewBox="0 0 511.445 511.445" width="512" xmlns="http://www.w3.org/2000/svg"><g><path d="m481.324 30.901c-40.25-40.252-105.406-40.258-145.663 0l-79.903 79.903-79.903-79.904c-40.16-40.158-105.505-40.158-145.664.002-40.252 40.251-40.257 105.406 0 145.664l90.51 90.509c5.857 5.858 15.355 5.859 21.213 0l113.844-113.844 113.845 113.844c5.857 5.858 15.355 5.859 21.213 0l90.51-90.509c40.158-40.161 40.158-105.505-.002-145.665zm-350.017 204.354-79.903-79.902c-28.462-28.463-28.462-74.775 0-103.238 28.461-28.46 74.77-28.466 103.238 0l79.903 79.903zm328.805-79.902-79.903 79.902-103.238-103.237 79.903-79.903c28.463-28.462 74.775-28.463 103.238 0 28.462 28.462 28.462 74.775 0 103.238z"/><path d="m223.758 288.733c-25.916 0-47 21.084-47 47s21.084 47 47 47 47-21.084 47-47-21.084-47-47-47zm0 64c-9.374 0-17-7.626-17-17s7.626-17 17-17 17 7.626 17 17-7.626 17-17 17z"/><path d="m335.758 368.733c-25.916 0-47 21.084-47 47s21.084 47 47 47 47-21.084 47-47-21.084-47-47-47zm0 64c-9.374 0-17-7.626-17-17s7.626-17 17-17 17 7.626 17 17-7.626 17-17 17z"/><path d="m217.408 244.093c2.797 8.583 11.254 12.205 18.71 9.99 8.587-2.808 12.21-11.268 9.99-18.71-2.982-9.159-12.545-12.673-20.09-9.49-7.102 3-10.85 10.704-8.61 18.21z"/><path d="m297.407 284.084c2.743 8.569 11.332 12.237 18.7 10 8.558-2.74 12.228-11.267 10-18.71-2.96-9.123-12.516-12.686-20.09-9.49-7.296 3.078-10.807 10.963-8.61 18.2z"/><path d="m406.468 492.803c-1.881-8.977-10.763-13.898-19.07-11.42-8.529 2.78-12.221 11.2-9.99 18.71 2.821 8.628 11.361 12.219 18.7 9.99 7.791-2.494 11.743-9.889 10.36-17.28z"/><path d="m294.468 492.803c-1.861-8.881-10.652-13.931-19.07-11.42-7.765 2.366-12.41 10.562-9.99 18.71 2.416 7.902 10.761 12.401 18.7 9.99 7.774-2.488 11.746-9.872 10.36-17.28z"/><path d="m246.468 428.803c-1.841-8.828-10.616-13.94-19.07-11.42-8.568 2.792-12.233 11.33-9.99 18.7 2.682 8.405 11.094 12.262 18.71 10 7.918-2.588 11.711-10.01 10.35-17.28z"/><path d="m162.368 418.343c5.856-6.032 5.861-15.182 0-21.22-6.71-6.513-16.843-5.476-22.21 1.1-5.386 6.607-4.108 16.052 2.09 21.11 5.801 4.728 14.309 4.65 20.12-.99z"/><path d="m190.468 492.803c-1.877-8.999-10.855-13.92-19.06-11.42-8.448 2.693-12.253 11.152-10 18.71 2.798 8.585 11.253 12.205 18.71 9.99 7.917-2.588 11.711-10.008 10.35-17.28z"/></g></svg>