<svg id="Layer_3" height="512" viewBox="0 0 64 64" width="512" xmlns="http://www.w3.org/2000/svg" data-name="Layer 3"><path d="m10 63h46a3 3 0 0 0 3-3v-26a3 3 0 0 0 -3-3h-11v-13a5.009 5.009 0 0 0 -4-4.9v-2.1a3 3 0 0 0 3-3v-4a3 3 0 0 0 -3-3h-32a3 3 0 0 0 -3 3v4a3 3 0 0 0 3 3v2.1a5.009 5.009 0 0 0 -4 4.9v40a5.006 5.006 0 0 0 5 5zm-3-5v-6h30v8a2.966 2.966 0 0 0 .184 1h-27.184a3 3 0 0 1 -3-3zm50-24v26a1 1 0 0 1 -1 1h-16a1 1 0 0 1 -1-1v-26a1 1 0 0 1 1-1h16a1 1 0 0 1 1 1zm-17-3a3 3 0 0 0 -3 3v16h-30v-26h36v7zm-32-23v-4a1 1 0 0 1 1-1h32a1 1 0 0 1 1 1v4a1 1 0 0 1 -1 1h-32a1 1 0 0 1 -1-1zm31 3v2h-28v-2zm-29 4h30a3 3 0 0 1 3 3v4h-36v-4a3 3 0 0 1 3-3z"/><path d="m33 33h-4v-4a1 1 0 0 0 -1-1h-6a1 1 0 0 0 -1 1v4h-4a1 1 0 0 0 -1 1v6a1 1 0 0 0 1 1h4v4a1 1 0 0 0 1 1h6a1 1 0 0 0 1-1v-4h4a1 1 0 0 0 1-1v-6a1 1 0 0 0 -1-1zm-1 6h-4a1 1 0 0 0 -1 1v4h-4v-4a1 1 0 0 0 -1-1h-4v-4h4a1 1 0 0 0 1-1v-4h4v4a1 1 0 0 0 1 1h4z"/><path d="m44 42a3 3 0 1 0 -3-3 3 3 0 0 0 3 3zm0-4a1 1 0 1 1 -1 1 1 1 0 0 1 1-1z"/><path d="m52 42a3 3 0 1 0 -3-3 3 3 0 0 0 3 3zm0-4a1 1 0 1 1 -1 1 1 1 0 0 1 1-1z"/><path d="m44 50a3 3 0 1 0 -3-3 3 3 0 0 0 3 3zm0-4a1 1 0 1 1 -1 1 1 1 0 0 1 1-1z"/><path d="m52 50a3 3 0 1 0 -3-3 3 3 0 0 0 3 3zm0-4a1 1 0 1 1 -1 1 1 1 0 0 1 1-1z"/><path d="m44 58a3 3 0 1 0 -3-3 3 3 0 0 0 3 3zm0-4a1 1 0 1 1 -1 1 1 1 0 0 1 1-1z"/><path d="m52 58a3 3 0 1 0 -3-3 3 3 0 0 0 3 3zm0-4a1 1 0 1 1 -1 1 1 1 0 0 1 1-1z"/></svg>